<svg id="44147367-b5af-4d36-ab49-f0f25d06aef4" data-name="Capa 1" xmlns="http://www.w3.org/2000/svg" viewBox="0 0 445.46484 43.19971">
  <defs>
    <style>
      .\38 53c8129-3473-4eee-9794-7f00acb06902 {
        fill: #fff;
      }
    </style>
  </defs>
  <title>logo1</title>
  <g>
    <g>
      <path class="853c8129-3473-4eee-9794-7f00acb06902" d="M34.53516,258.40723a22.77791,22.77791,0,0,1,1.3501-7.6499,21.21163,21.21163,0,0,1,3.92969-6.81006,20.17574,20.17574,0,0,1,6.36035-4.89014,18.92711,18.92711,0,0,1,8.58008-1.88965,17.77305,17.77305,0,0,1,9.75,2.58008,15.70386,15.70386,0,0,1,5.96973,6.71973l-3.2998,2.04a12.62088,12.62088,0,0,0-2.49023-3.54,13.87656,13.87656,0,0,0-3.1499-2.33984,13.333,13.333,0,0,0-3.48-1.29,16.70545,16.70545,0,0,0-3.54-.39014,14.249,14.249,0,0,0-6.77979,1.56006,15.60722,15.60722,0,0,0-4.9502,4.08008,17.779,17.779,0,0,0-3.02979,5.66992,20.605,20.605,0,0,0-1.02,6.39014,18.9365,18.9365,0,0,0,1.23,6.78027,19.19106,19.19106,0,0,0,3.35986,5.72949,16.11857,16.11857,0,0,0,5.04,3.96,13.83036,13.83036,0,0,0,6.33008,1.4707,15.86683,15.86683,0,0,0,3.68994-.45117,14.17537,14.17537,0,0,0,3.65967-1.43945,15.40111,15.40111,0,0,0,3.27-2.46,12.73043,12.73043,0,0,0,2.52-3.56934l3.48,1.79883a13.02939,13.02939,0,0,1-2.87988,4.23047,18.9133,18.9133,0,0,1-4.14014,3.08984,20.62582,20.62582,0,0,1-4.82959,1.91992,19.97719,19.97719,0,0,1-5.01025.66016,17.02351,17.02351,0,0,1-8.04-1.91992,21.05591,21.05591,0,0,1-6.2998-5.00977,23.23755,23.23755,0,0,1-4.10986-7.01953A22.67675,22.67675,0,0,1,34.53516,258.40723Z" transform="translate(-34.53516 -237.16748)"/>
      <path class="853c8129-3473-4eee-9794-7f00acb06902" d="M91.11475,237.40723h3.54l17.69971,42.60059h-4.43994l-5.52-13.32031H83.25488l-5.46,13.32031h-4.5Zm10.31982,25.97949-8.58008-21.05957-8.69971,21.05957Z" transform="translate(-34.53516 -237.16748)"/>
      <path class="853c8129-3473-4eee-9794-7f00acb06902" d="M156.21484,280.00781V245.02734l-15.54,27.06055h-2.46l-15.54-27.06055v34.98047h-4.2002V237.40723h4.32031l16.61963,29.16016,16.74023-29.16016h4.25977v42.60059Z" transform="translate(-34.53516 -237.16748)"/>
      <path class="853c8129-3473-4eee-9794-7f00acb06902" d="M203.13477,269.02734a10.10575,10.10575,0,0,1-.96,4.41016,11.14016,11.14016,0,0,1-2.58008,3.48047,11.63531,11.63531,0,0,1-3.78027,2.2793,13.04355,13.04355,0,0,1-4.61914.81055H171.09473V237.40723h20.52051a8.41643,8.41643,0,0,1,4.01953.96,10.05572,10.05572,0,0,1,3.06055,2.49023,11.42,11.42,0,0,1,1.94922,3.48,11.71065,11.71065,0,0,1,.69043,3.92969,11.17157,11.17157,0,0,1-1.62012,5.91016,10.02734,10.02734,0,0,1-4.5,3.99072,10.64707,10.64707,0,0,1,5.79,4.01953A11.35813,11.35813,0,0,1,203.13477,269.02734Zm-27.83984-27.96v15.71973h14.63965a6.52935,6.52935,0,0,0,2.91016-.65967,7.407,7.407,0,0,0,2.31055-1.74023,8.06484,8.06484,0,0,0,1.5-2.48975,8.24307,8.24307,0,0,0,.54-2.97021,9.10238,9.10238,0,0,0-.51074-3.06006,7.481,7.481,0,0,0-1.43945-2.48975,7.21972,7.21972,0,0,0-2.19043-1.68018,6.08664,6.08664,0,0,0-2.75977-.62988Zm23.63965,27.23926a8.71427,8.71427,0,0,0-.54-3.0293,7.87352,7.87352,0,0,0-3.87012-4.37988,6.30086,6.30086,0,0,0-2.90918-.69043H175.29492v16.14063h15.90039a7.05324,7.05324,0,0,0,3.0293-.66016,8.04524,8.04524,0,0,0,2.46-1.76953,8.27368,8.27368,0,0,0,1.65039-2.58008A7.96179,7.96179,0,0,0,198.93457,268.30664Z" transform="translate(-34.53516 -237.16748)"/>
      <path class="853c8129-3473-4eee-9794-7f00acb06902" d="M223.35352,237.40723h3.54l17.7002,42.60059h-4.44043l-5.51953-13.32031H215.49316l-5.46,13.32031h-4.5Zm10.32031,25.97949-8.58008-21.05957-8.7002,21.05957Z" transform="translate(-34.53516 -237.16748)"/>
      <path class="853c8129-3473-4eee-9794-7f00acb06902" d="M250.71289,280.00781V237.40723h4.2002v38.87988H279.5127v3.7207Z" transform="translate(-34.53516 -237.16748)"/>
      <path class="853c8129-3473-4eee-9794-7f00acb06902" d="M298.89258,237.40723h3.54l17.7002,42.60059h-4.44043l-5.51953-13.32031H291.03223l-5.46,13.32031h-4.5Zm10.32031,25.97949-8.58008-21.05957-8.7002,21.05957Z" transform="translate(-34.53516 -237.16748)"/>
      <path class="853c8129-3473-4eee-9794-7f00acb06902" d="M321.873,258.40723a22.76649,22.76649,0,0,1,1.35059-7.6499,21.21163,21.21163,0,0,1,3.92969-6.81006,20.17023,20.17023,0,0,1,6.36035-4.89014,18.9242,18.9242,0,0,1,8.58008-1.88965,17.7719,17.7719,0,0,1,9.75,2.58008,15.69757,15.69757,0,0,1,5.96973,6.71973l-3.2998,2.04a12.63082,12.63082,0,0,0-2.49023-3.54,13.85763,13.85763,0,0,0-3.15039-2.33984,13.32975,13.32975,0,0,0-3.47949-1.29,16.702,16.702,0,0,0-3.54-.39014,14.25376,14.25376,0,0,0-6.78027,1.56006,15.61257,15.61257,0,0,0-4.9502,4.08008,17.7971,17.7971,0,0,0-3.0293,5.66992,20.60555,20.60555,0,0,0-1.02051,6.39014,18.93689,18.93689,0,0,0,1.23047,6.78027,19.20015,19.20015,0,0,0,3.35938,5.72949,16.12968,16.12968,0,0,0,5.04,3.96,13.83619,13.83619,0,0,0,6.33008,1.4707,15.86458,15.86458,0,0,0,3.69043-.45117,14.18537,14.18537,0,0,0,3.66016-1.43945,15.423,15.423,0,0,0,3.26953-2.46,12.7218,12.7218,0,0,0,2.52051-3.56934l3.47949,1.79883a13.02939,13.02939,0,0,1-2.87988,4.23047,18.922,18.922,0,0,1-4.13965,3.08984,20.63787,20.63787,0,0,1-4.83008,1.91992,19.97635,19.97635,0,0,1-5.00977.66016,17.02211,17.02211,0,0,1-8.04-1.91992,21.05994,21.05994,0,0,1-6.30078-5.00977,23.25641,23.25641,0,0,1-4.10937-7.01953A22.68824,22.68824,0,0,1,321.873,258.40723Z" transform="translate(-34.53516 -237.16748)"/>
      <path class="853c8129-3473-4eee-9794-7f00acb06902" d="M399.45313,237.40723v42.60059H395.3125V260.08789H370.05273v19.91992h-4.2002V237.40723h4.2002v18.96H395.3125v-18.96Z" transform="translate(-34.53516 -237.16748)"/>
      <path class="853c8129-3473-4eee-9794-7f00acb06902" d="M438.752,276.28711v3.7207H410.13184V237.40723h28.08008v3.72021H414.332V256.4873h20.82031v3.54H414.332v16.25977Z" transform="translate(-34.53516 -237.16748)"/>
    </g>
    <rect class="853c8129-3473-4eee-9794-7f00acb06902" x="421.46484" y="18.83252" width="24" height="24"/>
  </g>
</svg>
